<svg width="38" height="38" viewBox="0 0 38 38" fill="none" xmlns="http://www.w3.org/2000/svg">
<path d="M11.2273 0C5.035 0 0 5.035 0 11.2273V26.7727C0 32.965 5.035 38 11.2273 38H26.7727C32.965 38 38 32.965 38 26.7727V11.2273C38 5.035 32.965 0 26.7727 0H11.2273ZM29.3636 6.90909C30.3136 6.90909 31.0909 7.68636 31.0909 8.63636C31.0909 9.58636 30.3136 10.3636 29.3636 10.3636C28.4136 10.3636 27.6364 9.58636 27.6364 8.63636C27.6364 7.68636 28.4136 6.90909 29.3636 6.90909ZM19 9.5C24.2423 9.5 28.5 13.7577 28.5 19C28.5 24.2423 24.2423 28.5 19 28.5C13.7577 28.5 9.5 24.2423 9.5 19C9.5 13.7577 13.7577 9.5 19 9.5ZM19 11.2273C14.7164 11.2273 11.2273 14.7164 11.2273 19C11.2273 23.2836 14.7164 26.7727 19 26.7727C23.2836 26.7727 26.7727 23.2836 26.7727 19C26.7727 14.7164 23.2836 11.2273 19 11.2273Z" fill="white"/>
</svg>
