<svg width="38" height="38" viewBox="0 0 38 38" fill="none" xmlns="http://www.w3.org/2000/svg">
<path d="M33.4762 0H4.52381C2.02667 0 0 2.02667 0 4.52381V33.4762C0 35.9733 2.02667 38 4.52381 38H33.4762C35.9733 38 38 35.9733 38 33.4762V4.52381C38 2.02667 35.9733 0 33.4762 0ZM11.7619 14.4762V31.6667H6.33333V14.4762H11.7619ZM6.33333 9.47286C6.33333 8.20619 7.41905 7.2381 9.04762 7.2381C10.6762 7.2381 11.6986 8.20619 11.7619 9.47286C11.7619 10.7395 10.7486 11.7619 9.04762 11.7619C7.41905 11.7619 6.33333 10.7395 6.33333 9.47286ZM31.6667 31.6667H26.2381C26.2381 31.6667 26.2381 23.2886 26.2381 22.619C26.2381 20.8095 25.3333 19 23.0714 18.9638H22.999C20.8095 18.9638 19.9048 20.8276 19.9048 22.619C19.9048 23.4424 19.9048 31.6667 19.9048 31.6667H14.4762V14.4762H19.9048V16.7924C19.9048 16.7924 21.651 14.4762 25.1614 14.4762C28.7533 14.4762 31.6667 16.9462 31.6667 21.9495V31.6667Z" fill="white"/>
</svg>
