<svg width="38" height="48" viewBox="0 0 38 48" fill="none" xmlns="http://www.w3.org/2000/svg">
<path d="M19 23.75C20.3062 23.75 21.4245 23.2849 22.3547 22.3547C23.2849 21.4245 23.75 20.3063 23.75 19C23.75 17.6938 23.2849 16.5755 22.3547 15.6453C21.4245 14.7151 20.3062 14.25 19 14.25C17.6938 14.25 16.5755 14.7151 15.6453 15.6453C14.7151 16.5755 14.25 17.6938 14.25 19C14.25 20.3063 14.7151 21.4245 15.6453 22.3547C16.5755 23.2849 17.6938 23.75 19 23.75ZM19 41.2063C23.8292 36.7729 27.4115 32.7453 29.7469 29.1234C32.0823 25.5016 33.25 22.2854 33.25 19.475C33.25 15.1604 31.8745 11.6276 29.1234 8.87656C26.3724 6.12552 22.9979 4.75 19 4.75C15.0021 4.75 11.6276 6.12552 8.87656 8.87656C6.12552 11.6276 4.75 15.1604 4.75 19.475C4.75 22.2854 5.91771 25.5016 8.25313 29.1234C10.5885 32.7453 14.1708 36.7729 19 41.2063ZM19 47.5C12.6271 42.0771 7.86719 37.0401 4.72031 32.3891C1.57344 27.738 0 23.4333 0 19.475C0 13.5375 1.9099 8.80729 5.72969 5.28438C9.54948 1.76146 13.9729 0 19 0C24.0271 0 28.4505 1.76146 32.2703 5.28438C36.0901 8.80729 38 13.5375 38 19.475C38 23.4333 36.4266 27.738 33.2797 32.3891C30.1328 37.0401 25.3729 42.0771 19 47.5Z" fill="white"/>
</svg>
