<svg width="38" height="38" viewBox="0 0 38 38" fill="none" xmlns="http://www.w3.org/2000/svg">
<path d="M35.7833 38C31.3852 38 27.0398 37.0412 22.7472 35.1236C18.4546 33.206 14.5491 30.488 11.0306 26.9694C7.51204 23.4509 4.79398 19.5454 2.87639 15.2528C0.958796 10.9602 0 6.61482 0 2.21667C0 1.58333 0.211111 1.05556 0.633333 0.633333C1.05556 0.211111 1.58333 0 2.21667 0H10.7667C11.2593 0 11.6991 0.16713 12.0861 0.501389C12.4731 0.835648 12.7019 1.23148 12.7722 1.68889L14.1444 9.07778C14.2148 9.64074 14.1972 10.1157 14.0917 10.5028C13.9861 10.8898 13.7926 11.2241 13.5111 11.5056L8.39167 16.6778C9.09537 17.9796 9.93102 19.2375 10.8986 20.4514C11.8662 21.6653 12.9306 22.8352 14.0917 23.9611C15.1824 25.0519 16.3259 26.0634 17.5222 26.9958C18.7185 27.9282 19.9852 28.7815 21.3222 29.5556L26.2833 24.5944C26.6 24.2778 27.0134 24.0403 27.5236 23.8819C28.0338 23.7236 28.5352 23.6796 29.0278 23.75L36.3111 25.2278C36.8037 25.3685 37.2083 25.6236 37.525 25.9931C37.8417 26.3625 38 26.7759 38 27.2333V35.7833C38 36.4167 37.7889 36.9444 37.3667 37.3667C36.9444 37.7889 36.4167 38 35.7833 38ZM6.38611 12.6667L9.86944 9.18333L8.97222 4.22222H4.275C4.45093 5.66481 4.69722 7.08982 5.01389 8.49722C5.33056 9.90463 5.78796 11.2944 6.38611 12.6667ZM25.2806 31.5611C26.6528 32.1593 28.0514 32.6343 29.4764 32.9861C30.9014 33.338 32.3352 33.5667 33.7778 33.6722V29.0278L28.8167 28.025L25.2806 31.5611Z" fill="white"/>
</svg>
